<svg width="28" height="28" viewBox="0 0 28 28" fill="none" xmlns="http://www.w3.org/2000/svg">
    <g clip-path="url(#clip0)">
        <path d="M23.9006 23.9009C29.3682 18.4333 29.3682 9.56844 23.9006 4.10078C18.4329 -1.36688 9.56806 -1.36688 4.1004 4.10078C-1.36727 9.56844 -1.36727 18.4333 4.1004 23.9009C9.56806 29.3686 18.4329 29.3686 23.9006 23.9009Z"
              fill="#FFD05D"/>
        <path d="M21.3249 2.05151C23.0305 4.72146 23.7802 7.89089 23.4516 11.042C23.1229 14.1932 21.7354 17.1397 19.5156 19.4003C17.2959 21.6609 14.3751 23.1018 11.2304 23.4878C8.08583 23.8737 4.90326 23.1819 2.2027 21.5252C3.33664 23.2983 4.85574 24.7929 6.64702 25.8979C8.4383 27.0029 10.4557 27.6899 12.549 27.9076C14.6424 28.1254 16.758 27.8684 18.7383 27.1558C20.7187 26.4431 22.5129 25.2932 23.9875 23.7915C25.4622 22.2897 26.5792 20.4749 27.2557 18.4819C27.9321 16.4888 28.1506 14.369 27.8947 12.2799C27.6388 10.1908 26.9153 8.18631 25.7778 6.41546C24.6404 4.64461 23.1183 3.15298 21.3249 2.05151Z"
              fill="#FDC453"/>
        <path d="M1.90208 15.4774C1.90177 12.7624 2.75164 10.1155 4.33241 7.90826C5.91317 5.70098 8.14546 4.04412 10.7159 3.17027C13.2864 2.29642 16.066 2.24944 18.6645 3.03593C21.263 3.82242 23.55 5.4029 25.2045 7.5555C24.3179 6.01108 23.1234 4.66529 21.6952 3.60163C20.2669 2.53798 18.6353 1.77913 16.9016 1.37217C15.168 0.965214 13.3691 0.918822 11.6168 1.23587C9.86442 1.55293 8.19589 2.22666 6.7147 3.21528C5.23352 4.20391 3.97126 5.48633 3.00624 6.983C2.04123 8.47967 1.39402 10.1587 1.10479 11.9158C0.815553 13.673 0.890453 15.4709 1.32484 17.1979C1.75923 18.9249 2.54384 20.5442 3.63001 21.9555C2.49468 19.9855 1.89868 17.7511 1.90208 15.4774Z"
              fill="#FFD77F"/>
        <path d="M10.8819 11.9596C11.1659 10.2099 9.97776 8.56134 8.22812 8.27734C6.47847 7.99333 4.82987 9.18146 4.54586 10.9311C4.26185 12.6808 5.44999 14.3294 7.19963 14.6134C8.94928 14.8974 10.5979 13.7092 10.8819 11.9596Z"
              fill="white"/>
        <path d="M9.96531 9.15872C9.46295 8.66299 8.81093 8.34707 8.11055 8.26004C7.41016 8.17302 6.70065 8.31976 6.09225 8.67746C5.99325 8.79552 5.93101 8.93999 5.91321 9.09302C5.8508 9.76317 6.71476 10.3906 7.84317 10.4974C8.97158 10.6041 9.93739 10.1459 9.9998 9.47573C10.0105 9.36881 9.99874 9.26084 9.96531 9.15872Z"
              fill="#303030"/>
        <path d="M22.5573 13.7139C23.8107 12.4605 23.8107 10.4284 22.5573 9.17501C21.3039 7.92163 19.2718 7.92163 18.0184 9.17501C16.765 10.4284 16.765 12.4605 18.0184 13.7139C19.2718 14.9673 21.3039 14.9673 22.5573 13.7139Z"
              fill="white"/>
        <path d="M22.5371 9.15877C22.035 8.66318 21.3833 8.34733 20.6832 8.2603C19.9831 8.17327 19.2738 8.31994 18.6657 8.67752C18.5685 8.7962 18.5081 8.94059 18.4916 9.09307C18.4292 9.76322 19.2931 10.3907 20.4215 10.4974C21.5499 10.6042 22.5157 10.1459 22.5782 9.47578C22.5884 9.36837 22.5743 9.26004 22.5371 9.15877Z"
              fill="#303030"/>
        <path d="M19.2175 17.2087C18.4785 16.5095 17.5642 16.0231 16.5714 15.8011C15.5805 15.5681 14.5513 15.549 13.5525 15.7452C12.5608 15.9395 11.6181 16.3305 10.7799 16.895C9.94759 17.4427 9.25105 18.173 8.7432 19.0303C8.70819 19.0911 8.69361 19.1616 8.70159 19.2314C8.70957 19.3011 8.7397 19.3665 8.78755 19.4179C8.81832 19.4506 8.85548 19.4767 8.89673 19.4945C8.93797 19.5123 8.98243 19.5214 9.02735 19.5214C9.07809 19.5213 9.12813 19.5095 9.17354 19.4869L9.47905 19.3358C10.2001 18.9793 10.8818 18.6426 11.5733 18.3732C12.3337 18.067 13.1212 17.8327 13.9253 17.6735C14.7239 17.5191 15.5365 17.4497 16.3497 17.4666C17.2156 17.4894 18.0778 17.5872 18.9268 17.7589C18.9959 17.7718 19.0674 17.7621 19.1306 17.7313C19.1938 17.7006 19.2455 17.6503 19.278 17.588C19.3105 17.5257 19.3222 17.4546 19.3113 17.3851C19.3005 17.3156 19.2676 17.2515 19.2175 17.2021V17.2087Z"
              fill="#5E4939"/>
    </g>
    <defs>
        <clipPath id="clip0">
            <rect width="28" height="28" fill="white"/>
        </clipPath>
    </defs>
</svg>
