<svg width="20" height="21" viewBox="0 0 20 21" fill="none" xmlns="http://www.w3.org/2000/svg">
    <path d="M18.7489 10.4999L19.8529 8.59194C20.1289 8.11294 19.9649 7.50194 19.4879 7.22594L17.5779 6.12194V3.92194C17.5779 3.36894 17.1309 2.92194 16.5779 2.92194H14.3789L13.2759 1.01294C13.1429 0.78394 12.9239 0.61594 12.6689 0.54694C12.4129 0.47694 12.1399 0.51394 11.9099 0.64694L9.99995 1.75094L8.08995 0.64594C7.61095 0.36894 6.99995 0.53394 6.72395 1.01194L5.61995 2.92194H3.42095C2.86795 2.92194 2.42095 3.36894 2.42095 3.92194V6.12094L0.510947 7.22494C0.280947 7.35794 0.113947 7.57694 0.0459474 7.83294C-0.0220526 8.08994 0.0139473 8.36194 0.145947 8.59194L1.24995 10.4999L0.145947 12.4079C0.0129473 12.6379 -0.0230526 12.9109 0.0449475 13.1679C0.112947 13.4239 0.279947 13.6429 0.509947 13.7749L2.41995 14.8789V17.0779C2.41995 17.6309 2.86695 18.0779 3.41995 18.0779H5.61995L6.72395 19.9879C6.85695 20.2169 7.07595 20.3839 7.33195 20.4539C7.41695 20.4759 7.50295 20.4879 7.58995 20.4879C7.76395 20.4879 7.93695 20.4419 8.09095 20.3529L9.99895 19.2489L11.9089 20.3529C12.1379 20.4859 12.4119 20.5209 12.6679 20.4529C12.9239 20.3849 13.1429 20.2179 13.2749 19.9879L14.3779 18.0779H16.5769C17.1299 18.0779 17.5769 17.6309 17.5769 17.0779V14.8789L19.4869 13.7749C19.9649 13.4979 20.1289 12.8859 19.8519 12.4079L18.7489 10.4999ZM7.49895 5.48994C8.32695 5.48994 8.99895 6.16194 8.99895 6.98994C8.99895 7.81794 8.32695 8.48994 7.49895 8.48994C6.67095 8.48994 5.99895 7.81794 5.99895 6.98994C5.99895 6.16194 6.67095 5.48994 7.49895 5.48994ZM7.79895 15.0899L6.19895 13.8909L12.1989 5.89094L13.7989 7.08994L7.79895 15.0899ZM12.4989 15.4899C11.6709 15.4899 10.9989 14.8179 10.9989 13.9899C10.9989 13.1619 11.6709 12.4899 12.4989 12.4899C13.3269 12.4899 13.9989 13.1619 13.9989 13.9899C13.9989 14.8179 13.3269 15.4899 12.4989 15.4899Z"
          fill="#BBBBBB"/>
</svg>
