<svg width="28" height="28" viewBox="0 0 28 28" fill="none" xmlns="http://www.w3.org/2000/svg">
<g clip-path="url(#clip0)">
<path d="M23.9006 23.9009C29.3682 18.4333 29.3682 9.56844 23.9006 4.10078C18.4329 -1.36688 9.56806 -1.36688 4.1004 4.10078C-1.36727 9.56844 -1.36727 18.4333 4.1004 23.9009C9.56806 29.3686 18.4329 29.3686 23.9006 23.9009Z" fill="#84B840"/>
<path d="M21.3249 2.05151C23.0305 4.72146 23.7802 7.89089 23.4516 11.042C23.1229 14.1932 21.7354 17.1397 19.5156 19.4003C17.2959 21.6609 14.3751 23.1018 11.2304 23.4878C8.08583 23.8737 4.90326 23.1819 2.2027 21.5252C3.33664 23.2983 4.85574 24.7929 6.64702 25.8979C8.4383 27.0029 10.4557 27.6899 12.549 27.9076C14.6424 28.1254 16.758 27.8684 18.7383 27.1558C20.7187 26.4431 22.5129 25.2932 23.9875 23.7915C25.4622 22.2897 26.5792 20.4749 27.2557 18.4819C27.9321 16.4888 28.1506 14.369 27.8947 12.2799C27.6388 10.1908 26.9153 8.18631 25.7778 6.41546C24.6404 4.64461 23.1183 3.15298 21.3249 2.05151Z" fill="#73AA43"/>
<path d="M1.90208 15.4774C1.90177 12.7624 2.75164 10.1155 4.33241 7.90826C5.91317 5.70098 8.14546 4.04412 10.7159 3.17027C13.2864 2.29642 16.066 2.24944 18.6645 3.03593C21.263 3.82242 23.55 5.4029 25.2045 7.5555C24.3179 6.01108 23.1234 4.66529 21.6952 3.60163C20.2669 2.53798 18.6353 1.77913 16.9016 1.37217C15.168 0.965214 13.3691 0.918822 11.6168 1.23587C9.86442 1.55293 8.19589 2.22666 6.7147 3.21528C5.23352 4.20391 3.97126 5.48633 3.00624 6.983C2.04123 8.47967 1.39402 10.1587 1.10479 11.9158C0.815553 13.673 0.890453 15.4709 1.32484 17.1979C1.75923 18.9249 2.54384 20.5442 3.63001 21.9555C2.49468 19.9855 1.89868 17.7511 1.90208 15.4774Z" fill="#93C23D"/>
<path d="M22.6668 18.2319C22.2956 17.023 21.3905 16.2412 20.3672 16.2412C19.9718 16.2421 19.5848 16.3561 19.252 16.5697C19.0098 16.7413 18.7955 16.949 18.6163 17.1856C18.5243 17.2941 18.4389 17.3959 18.3469 17.4895C18.1531 17.6812 17.9208 17.8296 17.6653 17.9248C17.3552 18.0273 17.0206 18.0291 16.7094 17.9299C16.3981 17.8308 16.1262 17.6358 15.9324 17.3729C15.4397 16.6568 14.7285 16.2461 14.0008 16.2461C13.715 16.2526 13.4334 16.3164 13.1727 16.4338C12.912 16.5512 12.6775 16.7197 12.4832 16.9294C12.3804 17.0327 12.2844 17.1424 12.1957 17.2579C12.1238 17.3537 12.0465 17.4453 11.9641 17.5322C11.8001 17.6793 11.6117 17.7966 11.4073 17.8788C11.1579 18.0011 10.8775 18.0457 10.6025 18.0069C10.2348 17.9386 9.8973 17.7578 9.63668 17.4895C9.55291 17.4025 9.47243 17.3072 9.38209 17.2054C9.19184 16.9607 8.96659 16.7454 8.71358 16.5664C8.38447 16.3553 8.00244 16.2415 7.61146 16.2379C6.60624 16.2379 5.70942 16.9968 5.32671 18.1728C5.29146 18.276 5.29279 18.3881 5.33048 18.4904C5.36816 18.5927 5.43991 18.6789 5.53367 18.7345C5.61481 18.78 5.70984 18.7941 5.80068 18.7741C5.89152 18.7541 5.97186 18.7015 6.02643 18.6261C6.50768 18.02 7.30595 17.4764 8.10585 17.749C8.49841 17.8854 8.82363 18.2418 9.09136 18.5703C9.44654 19.0186 9.95602 19.3184 10.5204 19.4113C10.6106 19.4244 10.7018 19.4309 10.793 19.431C11.1346 19.4202 11.4694 19.3321 11.7721 19.1734C12.0748 19.0146 12.3375 18.7893 12.5406 18.5144L12.6244 18.406C12.7545 18.2019 12.9282 18.029 13.1329 17.8998C13.3376 17.7706 13.5684 17.6883 13.8087 17.6587C14.0805 17.6273 14.3556 17.6776 14.5987 17.8032C14.74 17.8774 14.8733 17.966 14.9962 18.0677C15.14 18.1922 15.2714 18.3303 15.3888 18.48C15.526 18.6529 15.6795 18.8124 15.847 18.9563C16.2386 19.2918 16.7433 19.4655 17.2584 19.442C17.7735 19.4186 18.2603 19.1996 18.6196 18.8298C18.6837 18.769 18.7954 18.6524 18.9251 18.5161C19.0894 18.3387 19.408 18.0102 19.4852 17.9576C19.749 17.7644 20.0695 17.664 20.3964 17.6723C20.7234 17.6807 21.0383 17.7972 21.292 18.0036C21.5492 18.1993 21.779 18.4285 21.9753 18.6853C22.0293 18.7588 22.108 18.8104 22.197 18.8306C22.286 18.8509 22.3793 18.8383 22.4598 18.7953C22.5548 18.7405 22.6276 18.6541 22.6655 18.5512C22.7033 18.4482 22.7037 18.3352 22.6668 18.2319Z" fill="#5E4939"/>
<path d="M5.83463 8.70846L4.92871 9.61438L9.00999 13.6957L9.91591 12.7897L5.83463 8.70846Z" fill="#303030"/>
<path d="M9.91617 9.61405L9.01025 8.70813L4.92897 12.7894L5.83489 13.6953L9.91617 9.61405Z" fill="#303030"/>
<path d="M18.99 8.70809L18.0841 9.61401L22.1654 13.6953L23.0713 12.7894L18.99 8.70809Z" fill="#303030"/>
<path d="M23.0714 9.61442L22.1655 8.7085L18.0842 12.7898L18.9901 13.6957L23.0714 9.61442Z" fill="#303030"/>
</g>
<defs>
<clipPath id="clip0">
<rect width="28" height="28" fill="white"/>
</clipPath>
</defs>
</svg>
