<svg width="16" height="16" viewBox="0 0 16 16" fill="none" xmlns="http://www.w3.org/2000/svg">
    <path d="M2.66671 14H9.08004C9.85937 14 10.5974 13.6607 11.1047 13.0687L14.506 9.10071C14.6507 8.93204 14.702 8.70271 14.6427 8.48871C14.5834 8.27471 14.4214 8.10471 14.2114 8.03404L12.8994 7.59671C12.2654 7.38537 11.538 7.51537 11.0174 7.93204L8.89404 9.63004L8.48271 8.80671C8.02804 7.89804 7.11404 7.33337 6.09737 7.33337H2.66671C1.93137 7.33337 1.33337 7.93137 1.33337 8.66671V12.6667C1.33337 13.402 1.93137 14 2.66671 14ZM2.66671 8.66671H6.09737C6.60604 8.66671 7.06271 8.94871 7.29004 9.40337L7.58804 10H6.66671H5.33337H4.66671V11.3334H5.33337H6.66671H8.66671C8.66737 11.3334 8.66804 11.3334 8.66804 11.3334C8.66871 11.3334 8.66871 11.3334 8.66871 11.3334C8.66937 11.3334 8.66937 11.3334 8.67004 11.3334C8.67004 11.3334 8.67137 11.3334 8.67404 11.3334C8.67471 11.3334 8.67537 11.3334 8.67537 11.3334C8.67604 11.3334 8.67604 11.3334 8.67604 11.3334C8.78004 11.332 8.88137 11.306 8.97071 11.26C8.97137 11.26 8.97204 11.26 8.97271 11.2594C8.97337 11.2587 8.97471 11.2587 8.97537 11.258H8.97604H8.97671C8.97737 11.258 8.97737 11.258 8.97737 11.258C8.97804 11.258 8.97804 11.258 8.97871 11.2574H8.97937H8.98004C8.98071 11.2574 8.98071 11.2574 8.98071 11.2574C8.98137 11.2574 8.98137 11.2574 8.98137 11.2574C8.98204 11.2574 8.98204 11.2574 8.98204 11.2567C8.98804 11.2587 8.98404 11.256 8.98404 11.256C8.99071 11.256 8.98537 11.2554 8.98537 11.2554C8.98604 11.2554 8.98604 11.2554 8.98604 11.2554C8.98737 11.2554 8.98737 11.2554 8.98737 11.2547C8.98804 11.2547 8.98871 11.254 8.98937 11.254C8.99004 11.254 8.99004 11.254 8.99071 11.2534C8.99071 11.2534 8.99137 11.2527 8.99204 11.2527C8.99271 11.2527 8.99337 11.252 8.99404 11.252C8.99471 11.252 8.99471 11.252 8.99537 11.2514C8.99737 11.2514 8.99604 11.2507 8.99671 11.2507C8.99737 11.2507 8.99804 11.25 8.99871 11.2494C8.99937 11.2487 8.99937 11.2494 9.00004 11.2487C9.00071 11.248 9.00071 11.248 9.00137 11.248C9.00271 11.2474 9.00337 11.2474 9.00337 11.2474C9.00404 11.2474 9.00404 11.2474 9.00471 11.2467C9.00471 11.2467 9.00471 11.2467 9.00537 11.2467C9.00604 11.2467 9.00671 11.246 9.00671 11.246C9.00737 11.246 9.00737 11.246 9.00737 11.246C9.00804 11.246 9.00804 11.246 9.00871 11.2454C9.00937 11.2454 9.00937 11.2454 9.01004 11.2447C9.01604 11.244 9.01204 11.244 9.01204 11.244C9.01204 11.2434 9.01337 11.2434 9.01337 11.2434C9.03871 11.228 9.06337 11.2107 9.08671 11.1914L11.8507 8.98004C12.0254 8.84137 12.266 8.79804 12.4774 8.86871L12.8487 8.99271L10.0934 12.208C9.83937 12.4967 9.47004 12.6667 9.08004 12.6667H2.66671V8.66671ZM10.6667 1.33337C10.6647 1.33337 10.6587 1.33337 10.6554 1.33337C10.5467 1.33471 9.98471 1.35937 9.33337 1.80337C8.69937 1.37137 8.15071 1.33671 8.02137 1.33404C8.01537 1.33404 8.00537 1.33337 8.00137 1.33337C8.00071 1.33337 8.00071 1.33337 8.00004 1.33337C7.99937 1.33337 7.99871 1.33337 7.99871 1.33337C7.46471 1.33337 6.96204 1.54204 6.58604 1.91871C6.20871 2.29671 6.00004 2.79871 6.00004 3.33337C6.00004 3.86804 6.20871 4.37004 6.57404 4.73604L8.85004 7.12671C8.97671 7.25871 9.15137 7.33337 9.33337 7.33337C9.51537 7.33337 9.69004 7.25871 9.81671 7.12604L12.0807 4.74737C12.4587 4.37004 12.6667 3.86804 12.6667 3.33337C12.6667 2.79871 12.458 2.29671 12.0814 1.91937C11.7047 1.54204 11.202 1.33337 10.668 1.33337C10.668 1.33337 10.6674 1.33337 10.6667 1.33337ZM11.3334 3.33337C11.3334 3.51137 11.264 3.67871 11.126 3.81671L9.33337 5.70004L7.52871 3.80471C7.40271 3.67871 7.33337 3.51137 7.33337 3.33337C7.33337 3.15537 7.40271 2.98804 7.52937 2.86137C7.65404 2.73604 7.82137 2.66671 7.98604 2.66671C8.00271 2.66737 8.32071 2.68804 8.69737 2.99004C8.75137 3.03337 8.80604 3.08271 8.86204 3.13804L9.33337 3.60937L9.80471 3.13804C9.86071 3.08271 9.91537 3.03337 9.96937 2.99004C10.322 2.70671 10.62 2.67137 10.6707 2.66737C10.8474 2.66804 11.0134 2.73671 11.138 2.86204C11.264 2.98804 11.3334 3.15537 11.3334 3.33337Z"
          fill="#EE9B9B"/>
</svg>
