<svg width="28" height="28" viewBox="0 0 28 28" fill="none" xmlns="http://www.w3.org/2000/svg">
<g clip-path="url(#clip0)">
<path d="M27.8218 16.244C29.0608 8.6115 23.8777 1.41975 16.2452 0.180818C8.61264 -1.05812 1.42089 4.12492 0.181952 11.7575C-1.05698 19.39 4.12606 26.5817 11.7586 27.8207C19.3911 29.0596 26.5829 23.8766 27.8218 16.244Z" fill="#FFD05D"/>
<path d="M21.3248 2.05151C23.0304 4.72146 23.7801 7.89089 23.4515 11.042C23.1229 14.1932 21.7353 17.1397 19.5156 19.4003C17.2958 21.6609 14.375 23.1018 11.2304 23.4878C8.08577 23.8737 4.9032 23.1819 2.20264 21.5252C3.33658 23.2983 4.85568 24.7929 6.64696 25.8979C8.43824 27.0029 10.4556 27.6899 12.549 27.9076C14.6424 28.1254 16.7579 27.8684 18.7383 27.1558C20.7186 26.4431 22.5129 25.2932 23.9875 23.7915C25.4621 22.2897 26.5792 20.4749 27.2556 18.4819C27.9321 16.4888 28.1505 14.369 27.8946 12.2799C27.6388 10.1908 26.9152 8.18631 25.7778 6.41546C24.6403 4.64461 23.1183 3.15298 21.3248 2.05151Z" fill="#FDC453"/>
<path d="M1.90208 15.4775C1.90177 12.7625 2.75164 10.1157 4.33241 7.90838C5.91317 5.7011 8.14546 4.04424 10.7159 3.17039C13.2864 2.29654 16.066 2.24956 18.6645 3.03605C21.263 3.82255 23.55 5.40302 25.2045 7.55562C24.3179 6.0112 23.1234 4.66541 21.6952 3.60176C20.2669 2.5381 18.6353 1.77925 16.9016 1.37229C15.168 0.965336 13.3691 0.918944 11.6168 1.236C9.86442 1.55305 8.19589 2.22678 6.7147 3.21541C5.23352 4.20403 3.97126 5.48645 3.00624 6.98312C2.04123 8.4798 1.39402 10.1588 1.10479 11.916C0.815553 13.6731 0.890453 15.471 1.32484 17.198C1.75923 18.925 2.54384 20.5444 3.63001 21.9556C2.49468 19.9856 1.89868 17.7512 1.90208 15.4775Z" fill="#FFD77F"/>
<path d="M19.95 20.7122C19.7832 19.251 19.0846 17.9022 17.9873 16.9229C16.89 15.9437 15.4707 15.4025 13.9999 15.4025C12.5292 15.4025 11.1099 15.9437 10.0126 16.9229C8.91525 17.9022 8.21664 19.251 8.04993 20.7122H19.95Z" fill="#695342"/>
<path d="M8.04834 20.7122C8.04834 20.7122 13.0695 17.01 19.9484 20.7122H8.04834Z" fill="#F06669"/>
<path d="M6.44857 14.2259C6.32437 14.2275 6.20283 14.19 6.1011 14.1187C5.99936 14.0475 5.92257 13.9461 5.88156 13.8288C5.84054 13.7116 5.83738 13.5845 5.87251 13.4653C5.90764 13.3462 5.97929 13.2411 6.07736 13.1649L8.09601 11.5914L6.01494 10.3644C5.94348 10.3271 5.88035 10.2756 5.82941 10.2131C5.77846 10.1506 5.74076 10.0784 5.71859 10.0009C5.69642 9.92333 5.69026 9.8421 5.70046 9.76212C5.71067 9.68214 5.73704 9.60507 5.77796 9.5356C5.81889 9.46612 5.87352 9.4057 5.93852 9.358C6.00353 9.3103 6.07756 9.27632 6.15612 9.25813C6.23467 9.23994 6.3161 9.23791 6.39546 9.25218C6.47482 9.26644 6.55045 9.2967 6.61775 9.34111L9.45766 11.005C9.54271 11.0533 9.6145 11.1218 9.66663 11.2046C9.71876 11.2873 9.74961 11.3817 9.75644 11.4792C9.76327 11.5768 9.74586 11.6745 9.70577 11.7637C9.66567 11.8529 9.60414 11.9308 9.52664 11.9905L6.81321 14.1011C6.70889 14.1821 6.5806 14.226 6.44857 14.2259Z" fill="#303030"/>
<path d="M21.5515 14.226C21.4195 14.2258 21.2913 14.1819 21.1868 14.1012L18.48 11.9905C18.4019 11.9315 18.3397 11.854 18.2989 11.765C18.2582 11.6759 18.2402 11.5782 18.2465 11.4805C18.2529 11.3828 18.2834 11.2882 18.3353 11.2052C18.3872 11.1222 18.459 11.0534 18.544 11.005L21.3839 9.33457C21.5196 9.25485 21.6815 9.2323 21.8338 9.27188C21.9861 9.31147 22.1165 9.40994 22.1962 9.54563C22.2759 9.68133 22.2984 9.84314 22.2589 9.99546C22.2193 10.1478 22.1208 10.2781 21.9851 10.3579L19.8975 11.5848L21.9178 13.1583C22.0155 13.2343 22.087 13.339 22.1222 13.4576C22.1575 13.5763 22.1547 13.703 22.1143 13.82C22.0739 13.9369 21.9979 14.0384 21.897 14.11C21.7961 14.1816 21.6753 14.2199 21.5515 14.2194V14.226Z" fill="#303030"/>
</g>
<defs>
<clipPath id="clip0">
<rect width="28" height="28" fill="white"/>
</clipPath>
</defs>
</svg>
