<svg width="28" height="28" viewBox="0 0 28 28" fill="none" xmlns="http://www.w3.org/2000/svg">
<g clip-path="url(#clip0)">
<path d="M27.8218 16.244C29.0608 8.6115 23.8777 1.41975 16.2452 0.180818C8.61264 -1.05812 1.42089 4.12492 0.181952 11.7575C-1.05698 19.39 4.12606 26.5817 11.7586 27.8207C19.3911 29.0596 26.5829 23.8766 27.8218 16.244Z" fill="#FFD05D"/>
<path d="M21.3248 2.05151C23.0304 4.72146 23.7801 7.89089 23.4515 11.042C23.1229 14.1932 21.7353 17.1397 19.5156 19.4003C17.2958 21.6609 14.375 23.1018 11.2304 23.4878C8.08577 23.8737 4.9032 23.1819 2.20264 21.5252C3.33658 23.2983 4.85568 24.7929 6.64696 25.8979C8.43824 27.0029 10.4556 27.6899 12.549 27.9076C14.6424 28.1254 16.7579 27.8684 18.7383 27.1558C20.7186 26.4431 22.5129 25.2932 23.9875 23.7915C25.4621 22.2897 26.5792 20.4749 27.2556 18.4819C27.9321 16.4888 28.1505 14.369 27.8946 12.2799C27.6388 10.1908 26.9152 8.18631 25.7778 6.41546C24.6403 4.64461 23.1183 3.15298 21.3248 2.05151Z" fill="#FDC453"/>
<path d="M1.90208 15.4775C1.90177 12.7625 2.75164 10.1157 4.33241 7.90838C5.91317 5.7011 8.14546 4.04424 10.7159 3.17039C13.2864 2.29654 16.066 2.24956 18.6645 3.03605C21.263 3.82255 23.55 5.40302 25.2045 7.55562C24.3179 6.0112 23.1234 4.66541 21.6952 3.60176C20.2669 2.5381 18.6353 1.77925 16.9016 1.37229C15.168 0.965336 13.3691 0.918944 11.6168 1.236C9.86442 1.55305 8.19589 2.22678 6.7147 3.21541C5.23352 4.20403 3.97126 5.48645 3.00624 6.98312C2.04123 8.4798 1.39402 10.1588 1.10479 11.916C0.815553 13.6731 0.890453 15.471 1.32484 17.198C1.75923 18.925 2.54384 20.5444 3.63001 21.9556C2.49468 19.9856 1.89868 17.7512 1.90208 15.4775Z" fill="#FFD77F"/>
<path d="M8.04834 16.8655C8.21505 18.3267 8.91366 19.6756 10.011 20.6548C11.1083 21.6341 12.5276 22.1753 13.9984 22.1753C15.4691 22.1753 16.8884 21.6341 17.9857 20.6548C19.0831 19.6756 19.7817 18.3267 19.9484 16.8655H8.04834Z" fill="#695342"/>
<path d="M9.88959 20.5415C10.9771 21.5685 12.4097 22.1512 13.9053 22.1749C15.4009 22.1986 16.8513 21.6616 17.9708 20.6696L17.9149 20.5415C13.9187 18.5934 9.94379 20.5135 9.88959 20.5415Z" fill="#F06669"/>
<path d="M12.0693 9.92912C12.0693 9.92912 12.0693 9.91598 12.0693 9.90941C12.0693 8.61675 11.133 7.4325 9.72705 7.4325C8.61014 7.4325 7.96299 8.23569 7.74125 8.98632C7.52115 8.23569 6.87235 7.4325 5.75544 7.4325C4.34945 7.4325 3.41486 8.61675 3.41486 9.90941V9.92912C3.41486 10.21 3.41486 13.0729 7.7396 15.4053C12.0709 13.0729 12.0775 10.21 12.0693 9.92912Z" fill="#E62728"/>
<path d="M24.5836 9.92912V9.90941C24.5836 8.61675 23.649 7.4325 22.243 7.4325C21.1261 7.4325 20.4789 8.23569 20.2572 8.98632C20.0371 8.23569 19.3883 7.4325 18.2714 7.4325C16.8654 7.4325 15.9324 8.61675 15.9324 9.90941V9.92912C15.9324 10.21 15.9324 13.0729 20.2572 15.4053C24.5836 13.0729 24.5918 10.21 24.5836 9.92912Z" fill="#E62728"/>
</g>
<defs>
<clipPath id="clip0">
<rect width="28" height="28" fill="white"/>
</clipPath>
</defs>
</svg>
