<svg width="20" height="20" viewBox="0 0 20 20" fill="none" xmlns="http://www.w3.org/2000/svg">
    <path d="M10.0001 10.8334C10.4603 10.8334 10.8334 10.4603 10.8334 10.0001C10.8334 9.53984 10.4603 9.16675 10.0001 9.16675C9.53984 9.16675 9.16675 9.53984 9.16675 10.0001C9.16675 10.4603 9.53984 10.8334 10.0001 10.8334Z"
          stroke="#EAF2FB" stroke-width="2" stroke-linecap="round" stroke-linejoin="round"/>
    <path d="M15.8333 10.8334C16.2936 10.8334 16.6667 10.4603 16.6667 10.0001C16.6667 9.53984 16.2936 9.16675 15.8333 9.16675C15.3731 9.16675 15 9.53984 15 10.0001C15 10.4603 15.3731 10.8334 15.8333 10.8334Z"
          stroke="#EAF2FB" stroke-width="2" stroke-linecap="round" stroke-linejoin="round"/>
    <path d="M4.16659 10.8334C4.62682 10.8334 4.99992 10.4603 4.99992 10.0001C4.99992 9.53984 4.62682 9.16675 4.16659 9.16675C3.70635 9.16675 3.33325 9.53984 3.33325 10.0001C3.33325 10.4603 3.70635 10.8334 4.16659 10.8334Z"
          stroke="#EAF2FB" stroke-width="2" stroke-linecap="round" stroke-linejoin="round"/>
</svg>
