<svg width="11" height="10" viewBox="0 0 11 10" fill="none" xmlns="http://www.w3.org/2000/svg">
    <path d="M9.78571 5.71429H6.21429V9.28571C6.21429 9.67857 5.89286 10 5.5 10C5.10714 10 4.78571 9.67857 4.78571 9.28571V5.71429H1.21429C0.821429 5.71429 0.5 5.39286 0.5 5C0.5 4.60714 0.821429 4.28571 1.21429 4.28571H4.78571V0.714286C4.78571 0.321429 5.10714 0 5.5 0C5.89286 0 6.21429 0.321429 6.21429 0.714286V4.28571H9.78571C10.1786 4.28571 10.5 4.60714 10.5 5C10.5 5.39286 10.1786 5.71429 9.78571 5.71429Z"
          fill="#3CBCB4"/>
</svg>
