<svg width="28" height="28" viewBox="0 0 28 28" fill="none" xmlns="http://www.w3.org/2000/svg">
<g clip-path="url(#clip0)">
<path d="M23.9006 23.9009C29.3682 18.4333 29.3682 9.56844 23.9006 4.10078C18.4329 -1.36688 9.56806 -1.36688 4.1004 4.10078C-1.36727 9.56844 -1.36727 18.4333 4.1004 23.9009C9.56806 29.3686 18.4329 29.3686 23.9006 23.9009Z" fill="#FFD05D"/>
<path d="M21.3249 2.05151C23.0305 4.72146 23.7802 7.89089 23.4516 11.042C23.1229 14.1932 21.7354 17.1397 19.5156 19.4003C17.2959 21.6609 14.3751 23.1018 11.2304 23.4878C8.08583 23.8737 4.90326 23.1819 2.2027 21.5252C3.33664 23.2983 4.85574 24.7929 6.64702 25.8979C8.4383 27.0029 10.4557 27.6899 12.549 27.9076C14.6424 28.1254 16.758 27.8684 18.7383 27.1558C20.7187 26.4431 22.5129 25.2932 23.9875 23.7915C25.4622 22.2897 26.5792 20.4749 27.2557 18.4819C27.9321 16.4888 28.1506 14.369 27.8947 12.2799C27.6388 10.1908 26.9153 8.18631 25.7778 6.41546C24.6404 4.64461 23.1183 3.15298 21.3249 2.05151Z" fill="#FDC453"/>
<path d="M1.90208 15.4774C1.90177 12.7624 2.75164 10.1155 4.33241 7.90826C5.91317 5.70098 8.14546 4.04412 10.7159 3.17027C13.2864 2.29642 16.066 2.24944 18.6645 3.03593C21.263 3.82242 23.55 5.4029 25.2045 7.5555C24.3179 6.01108 23.1234 4.66529 21.6952 3.60163C20.2669 2.53798 18.6353 1.77913 16.9016 1.37217C15.168 0.965214 13.3691 0.918822 11.6168 1.23587C9.86442 1.55293 8.19589 2.22666 6.7147 3.21528C5.23352 4.20391 3.97126 5.48633 3.00624 6.983C2.04123 8.47967 1.39402 10.1587 1.10479 11.9158C0.815553 13.673 0.890453 15.4709 1.32484 17.1979C1.75923 18.9249 2.54384 20.5442 3.63001 21.9555C2.49468 19.9855 1.89868 17.7511 1.90208 15.4774Z" fill="#FFD77F"/>
<path d="M8.26199 15.4397C8.18582 15.3661 8.08673 15.3208 7.98123 15.3114C7.87573 15.302 7.7702 15.329 7.68222 15.388C7.59424 15.447 7.52913 15.5343 7.49774 15.6355C7.46635 15.7366 7.47058 15.8455 7.50972 15.9439C8.02637 17.2346 8.9148 18.3428 10.0623 19.1277C11.2098 19.9127 12.5646 20.3391 13.9548 20.3528C15.345 20.3665 16.7079 19.967 17.8707 19.2048C19.0334 18.4427 19.9436 17.3523 20.4856 16.072C20.5258 15.9742 20.5312 15.8656 20.5008 15.7642C20.4705 15.6629 20.4063 15.5751 20.319 15.5155C20.2316 15.4558 20.1264 15.428 20.021 15.4366C19.9156 15.4453 19.8164 15.4898 19.7399 15.5629C17.6933 17.5536 13.3439 20.3804 8.26199 15.4397Z" fill="#5E4939"/>
<path d="M17.6144 10.9376C17.8057 11.4145 18.1343 11.824 18.5585 12.114C18.9827 12.404 19.4835 12.5616 19.9974 12.5667C20.5113 12.5718 21.0151 12.4242 21.445 12.1427C21.8749 11.8611 22.2115 11.4583 22.4122 10.9852C22.4497 10.8965 22.4553 10.7976 22.4282 10.7053C22.4011 10.6129 22.3428 10.5328 22.2634 10.4784C22.1839 10.4241 22.0881 10.3989 21.9922 10.4072C21.8963 10.4154 21.8062 10.4565 21.7371 10.5236C20.9602 11.2776 19.7333 11.882 18.2879 10.4826C18.2102 10.4064 18.1059 10.3634 17.9971 10.3627C17.914 10.3634 17.8329 10.3885 17.7639 10.4349C17.685 10.4888 17.6271 10.5682 17.5999 10.6597C17.5727 10.7512 17.5778 10.8494 17.6144 10.9376Z" fill="#303030"/>
<path d="M5.58455 10.9376C5.77547 11.4146 6.10383 11.8243 6.52794 12.1144C6.95206 12.4046 7.45282 12.5623 7.96667 12.5674C8.48053 12.5725 8.98432 12.4248 9.41411 12.1431C9.84391 11.8614 10.1803 11.4584 10.3807 10.9852C10.4173 10.8968 10.4225 10.7985 10.3952 10.7067C10.368 10.615 10.3101 10.5354 10.2311 10.4813C10.1522 10.4272 10.0571 10.4019 9.9617 10.4096C9.86632 10.4173 9.77649 10.4576 9.70726 10.5236C8.93035 11.2776 7.70175 11.882 6.25798 10.4826C6.18032 10.4064 6.07606 10.3634 5.96725 10.3627C5.8841 10.3634 5.80299 10.3885 5.73402 10.4349C5.6549 10.4886 5.59679 10.5679 5.56954 10.6596C5.54229 10.7512 5.5476 10.8494 5.58455 10.9376Z" fill="#303030"/>
<path d="M3.70719 18.3929C5.05701 18.3929 6.15126 17.2986 6.15126 15.9488C6.15126 14.599 5.05701 13.5048 3.70719 13.5048C2.35737 13.5048 1.26312 14.599 1.26312 15.9488C1.26312 17.2986 2.35737 18.3929 3.70719 18.3929Z" fill="#F5A6AC"/>
<path d="M24.2928 18.3929C25.6426 18.3929 26.7369 17.2986 26.7369 15.9488C26.7369 14.599 25.6426 13.5048 24.2928 13.5048C22.943 13.5048 21.8488 14.599 21.8488 15.9488C21.8488 17.2986 22.943 18.3929 24.2928 18.3929Z" fill="#F5A6AC"/>
</g>
<defs>
<clipPath id="clip0">
<rect width="28" height="28" fill="white"/>
</clipPath>
</defs>
</svg>
