<svg width="28" height="28" viewBox="0 0 28 28" fill="none" xmlns="http://www.w3.org/2000/svg">
    <g filter="url(#filter0_iiii)">
        <path d="M27.2627 10.2386C27.0907 9.73463 26.636 9.37863 26.1053 9.33729L18.504 8.73329L15.2147 1.45196C15 0.973293 14.524 0.666626 14 0.666626C13.476 0.666626 13 0.973293 12.7853 1.45063L9.49601 8.73329L1.89468 9.33729C1.37335 9.37863 0.924012 9.72129 0.746679 10.2133C0.569346 10.7053 0.694679 11.256 1.06935 11.6213L6.68668 17.0973L4.70001 25.7C4.57735 26.232 4.79201 26.7853 5.24135 27.096C5.47068 27.2533 5.73468 27.3333 6.00001 27.3333C6.25735 27.3333 6.51601 27.2586 6.74001 27.1093L14 22.2693L21.26 27.1093C21.724 27.4186 22.3333 27.4066 22.7867 27.0773C23.2373 26.748 23.436 26.1706 23.2827 25.6346L20.844 17.1013L26.892 11.6586C27.288 11.3013 27.4333 10.744 27.2627 10.2386Z"
              fill="url(#paint0_linear)"/>
    </g>
    <defs>
        <filter id="filter0_iiii" x="-0.332642" y="-0.333374" width="28.6658" height="28.6667"
                filterUnits="userSpaceOnUse" color-interpolation-filters="sRGB">
            <feFlood flood-opacity="0" result="BackgroundImageFix"/>
            <feBlend mode="normal" in="SourceGraphic" in2="BackgroundImageFix" result="shape"/>
            <feColorMatrix in="SourceAlpha" type="matrix" values="0 0 0 0 0 0 0 0 0 0 0 0 0 0 0 0 0 0 127 0"
                           result="hardAlpha"/>
            <feOffset dx="1" dy="1"/>
            <feGaussianBlur stdDeviation="1.5"/>
            <feComposite in2="hardAlpha" operator="arithmetic" k2="-1" k3="1"/>
            <feColorMatrix type="matrix" values="0 0 0 0 0.639216 0 0 0 0 0.435294 0 0 0 0 0.105882 0 0 0 0.9 0"/>
            <feBlend mode="normal" in2="shape" result="effect1_innerShadow"/>
            <feColorMatrix in="SourceAlpha" type="matrix" values="0 0 0 0 0 0 0 0 0 0 0 0 0 0 0 0 0 0 127 0"
                           result="hardAlpha"/>
            <feOffset dx="-1" dy="-1"/>
            <feGaussianBlur stdDeviation="1"/>
            <feComposite in2="hardAlpha" operator="arithmetic" k2="-1" k3="1"/>
            <feColorMatrix type="matrix" values="0 0 0 0 1 0 0 0 0 0.858824 0 0 0 0 0.215686 0 0 0 0.9 0"/>
            <feBlend mode="normal" in2="effect1_innerShadow" result="effect2_innerShadow"/>
            <feColorMatrix in="SourceAlpha" type="matrix" values="0 0 0 0 0 0 0 0 0 0 0 0 0 0 0 0 0 0 127 0"
                           result="hardAlpha"/>
            <feOffset dx="1" dy="-1"/>
            <feGaussianBlur stdDeviation="1"/>
            <feComposite in2="hardAlpha" operator="arithmetic" k2="-1" k3="1"/>
            <feColorMatrix type="matrix" values="0 0 0 0 0.639216 0 0 0 0 0.435294 0 0 0 0 0.105882 0 0 0 0.2 0"/>
            <feBlend mode="normal" in2="effect2_innerShadow" result="effect3_innerShadow"/>
            <feColorMatrix in="SourceAlpha" type="matrix" values="0 0 0 0 0 0 0 0 0 0 0 0 0 0 0 0 0 0 127 0"
                           result="hardAlpha"/>
            <feOffset dx="-1" dy="1"/>
            <feGaussianBlur stdDeviation="1"/>
            <feComposite in2="hardAlpha" operator="arithmetic" k2="-1" k3="1"/>
            <feColorMatrix type="matrix" values="0 0 0 0 0.639216 0 0 0 0 0.435294 0 0 0 0 0.105882 0 0 0 0.2 0"/>
            <feBlend mode="normal" in2="effect3_innerShadow" result="effect4_innerShadow"/>
        </filter>
        <linearGradient id="paint0_linear" x1="-19.938" y1="83.7777" x2="58.0343" y2="64.4193"
                        gradientUnits="userSpaceOnUse">
            <stop stop-color="#F48535"/>
            <stop offset="1" stop-color="#F4C51D"/>
        </linearGradient>
    </defs>
</svg>
