<svg width="10" height="10" viewBox="0 0 10 10" fill="none" xmlns="http://www.w3.org/2000/svg">
    <path d="M9.97349 3.5895C9.90899 3.4005 9.73849 3.267 9.53949 3.2515L6.68899 3.025L5.45549 0.2945C5.37499 0.115 5.19649 0 4.99999 0C4.80349 0 4.62499 0.115 4.54449 0.294L3.31099 3.025L0.460489 3.2515C0.264989 3.267 0.0964894 3.3955 0.0299894 3.58C-0.0365106 3.7645 0.0104895 3.971 0.150989 4.108L2.25749 6.1615L1.51249 9.3875C1.46649 9.587 1.54699 9.7945 1.71549 9.911C1.80149 9.97 1.90049 10 1.99999 10C2.09649 10 2.19349 9.972 2.27749 9.916L4.99999 8.101L7.72249 9.916C7.89649 10.032 8.12499 10.0275 8.29499 9.904C8.46399 9.7805 8.53849 9.564 8.48099 9.363L7.56649 6.163L9.83449 4.122C9.98299 3.988 10.0375 3.779 9.97349 3.5895Z" fill="url(#paint0_linear)"/>
    <defs>
        <linearGradient id="paint0_linear" x1="-7.72678" y1="31.1667" x2="21.5128" y2="23.9073" gradientUnits="userSpaceOnUse">
            <stop stop-color="#F48535"/>
            <stop offset="1" stop-color="#F4C51D"/>
        </linearGradient>
    </defs>
</svg>
