<svg width="20" height="20" viewBox="0 0 20 20" fill="none" xmlns="http://www.w3.org/2000/svg">
    <g clip-path="url(#clip0)">
        <path d="M0.46462 20C0.352315 20 0.243063 19.9556 0.162038 19.8737C0.0552268 19.7656 0.0140281 19.6088 0.0541587 19.4621L1.35436 14.7142C0.544881 13.2504 0.118093 11.5945 0.118703 9.91364C0.120992 4.44717 4.56954 0 10.0355 0C12.6868 0.00106812 15.1779 1.03378 17.0503 2.90756C18.9224 4.78149 19.953 7.27249 19.9522 9.92157C19.9498 15.3882 15.5012 19.8357 10.0355 19.8357C10.0355 19.8357 10.0314 19.8357 10.0313 19.8357C8.43474 19.8351 6.85195 19.446 5.44265 18.709L0.5725 19.9861C0.536794 19.9954 0.500478 20 0.46462 20Z"
              fill="#E5E5E5"/>
        <path d="M0.4646 19.5744L1.81104 14.6576C0.980499 13.2185 0.54364 11.5861 0.54425 9.91376C0.546387 4.68198 4.80389 0.425537 10.0355 0.425537C12.5743 0.426605 14.9572 1.41476 16.7492 3.20828C18.5411 5.0018 19.5276 7.38583 19.5266 9.92139C19.5244 15.153 15.2662 19.4101 10.0355 19.4101C10.0352 19.4101 10.0357 19.4101 10.0355 19.4101H10.0314C8.44296 19.4095 6.88229 19.011 5.49603 18.255L0.4646 19.5744ZM5.72903 16.5373L6.01727 16.708C7.22821 17.4267 8.61661 17.8068 10.0325 17.8076H10.0355C14.3834 17.8076 17.9222 14.2694 17.924 9.92078C17.9248 7.81339 17.1051 5.83173 15.6157 4.34109C14.1261 2.85046 12.1457 2.02908 10.0384 2.02817C5.68707 2.02817 2.14841 5.56592 2.14673 9.91437C2.14612 11.4045 2.56299 12.8557 3.35278 14.1115L3.54047 14.4099L2.74335 17.3201L5.72903 16.5373Z"
              fill="white"/>
        <path d="M0.794678 19.2431L2.09457 14.4962C1.29257 13.1071 0.870972 11.531 0.871429 9.91678C0.873413 4.86612 4.98367 0.75708 10.0339 0.75708C12.485 0.758148 14.7856 1.71213 16.5152 3.44354C18.2452 5.17496 19.1974 7.47644 19.1965 9.92395C19.1943 14.9748 15.0839 19.0843 10.0343 19.0843C10.0339 19.0843 10.0345 19.0843 10.0343 19.0843H10.0302C8.49686 19.0836 6.99005 18.6988 5.65186 17.9695L0.794678 19.2431Z"
              fill="#64B161"/>
        <path d="M0.4646 19.5744L1.81104 14.6576C0.980499 13.2185 0.54364 11.5861 0.54425 9.91376C0.546387 4.68198 4.80389 0.425537 10.0355 0.425537C12.5743 0.426605 14.9572 1.41476 16.7492 3.20828C18.5411 5.0018 19.5276 7.38583 19.5266 9.92139C19.5244 15.153 15.2662 19.4101 10.0355 19.4101C10.0352 19.4101 10.0357 19.4101 10.0355 19.4101H10.0314C8.44296 19.4095 6.88229 19.011 5.49603 18.255L0.4646 19.5744ZM5.72903 16.5373L6.01727 16.708C7.22821 17.4267 8.61661 17.8068 10.0325 17.8076H10.0355C14.3834 17.8076 17.9222 14.2694 17.924 9.92078C17.9248 7.81339 17.1051 5.83173 15.6157 4.34109C14.1261 2.85046 12.1457 2.02908 10.0384 2.02817C5.68707 2.02817 2.14841 5.56592 2.14673 9.91437C2.14612 11.4045 2.56299 12.8557 3.35278 14.1115L3.54047 14.4099L2.74335 17.3201L5.72903 16.5373Z"
              fill="white"/>
        <path fill-rule="evenodd" clip-rule="evenodd"
              d="M7.66336 5.94709C7.48575 5.55219 7.29867 5.54425 7.12961 5.53739C6.99136 5.53144 6.83313 5.53174 6.6752 5.53174C6.51712 5.53174 6.26016 5.59125 6.04288 5.82852C5.82544 6.0658 5.21265 6.63953 5.21265 7.80637C5.21265 8.97336 6.06256 10.1008 6.18112 10.2592C6.29968 10.4175 7.82174 12.8885 10.2322 13.8391C12.2355 14.6292 12.6431 14.472 13.0779 14.4325C13.5128 14.393 14.481 13.8588 14.6786 13.305C14.8763 12.7513 14.8763 12.2767 14.817 12.1774C14.7576 12.0787 14.5995 12.0193 14.3624 11.9008C14.1253 11.7822 12.9594 11.2083 12.7419 11.1293C12.5245 11.0501 12.3664 11.0107 12.2083 11.2481C12.0501 11.4853 11.596 12.0193 11.4576 12.1774C11.3192 12.3359 11.1808 12.3558 10.9437 12.2371C10.7066 12.1182 9.94271 11.868 9.03665 11.06C8.33169 10.4315 7.85562 9.65512 7.71722 9.4177C7.57898 9.18058 7.71493 9.06339 7.82144 8.93384C8.01324 8.70053 8.33505 8.28107 8.41409 8.12299C8.49313 7.9646 8.45361 7.82621 8.39441 7.70749C8.33505 7.58893 7.87408 6.41614 7.66336 5.94709Z"
              fill="white"/>
    </g>
    <defs>
        <clipPath id="clip0">
            <rect width="20" height="20" fill="white"/>
        </clipPath>
    </defs>
</svg>
